<?xml version="1.0" encoding="UTF-8"?> <!-- Generator: Adobe Illustrator 19.0.0, SVG Export Plug-In . SVG Version: 6.00 Build 0) --> <svg xmlns="http://www.w3.org/2000/svg" xmlns:xlink="http://www.w3.org/1999/xlink" id="Layer_1" x="0px" y="0px" viewBox="0 0 511.96 511.96" style="enable-background:new 0 0 511.96 511.96;" xml:space="preserve"> <rect x="109.4" y="195.824" style="fill:#E21B1B;" width="36.96" height="85.664"></rect> <rect x="169.456" y="146.864" width="36.96" height="134.632"></rect> <rect x="229.528" y="91.792" style="fill:#E21B1B;" width="36.96" height="189.696"></rect> <rect x="289.616" y="36.72" width="36.96" height="244.768"></rect> <rect x="349.672" style="fill:#E21B1B;" width="36.96" height="281.52"></rect> <g> <path style="fill:#C9C9C9;" d="M141.976,338.384c12.6,0,22.848,10.248,22.848,22.848s-10.248,22.848-22.848,22.848 s-22.848-10.248-22.848-22.848S129.376,338.384,141.976,338.384 M141.976,314.384c-25.872,0-46.848,20.976-46.848,46.848 s20.976,46.848,46.848,46.848s46.848-20.976,46.848-46.848S167.848,314.384,141.976,314.384L141.976,314.384z"></path> <path style="fill:#C9C9C9;" d="M174.728,450.024c9.096,0.384,24.064,3.584,24.064,20.448v17.464H85.168V470.48 c0-17.008,14.944-20.12,23.984-20.448h65.576 M175.144,426.024h-66.328c0,0-47.648,0.536-47.648,44.448c0,39.68,0,41.488,0,41.488 v-0.016h161.624c0-0.256,0-3.776,0-41.464C222.792,426.824,175.144,426.024,175.144,426.024L175.144,426.024z M222.792,511.944 v0.016C222.792,511.96,222.792,511.96,222.792,511.944L222.792,511.944z"></path> <path style="fill:#C9C9C9;" d="M369.976,338.384c12.6,0,22.848,10.248,22.848,22.848s-10.248,22.848-22.848,22.848 s-22.848-10.248-22.848-22.848S357.376,338.384,369.976,338.384 M369.976,314.384c-25.872,0-46.848,20.976-46.848,46.848 s20.976,46.848,46.848,46.848s46.848-20.976,46.848-46.848S395.848,314.384,369.976,314.384L369.976,314.384z"></path> <path style="fill:#C9C9C9;" d="M402.728,450.024c9.096,0.384,24.064,3.584,24.064,20.448v17.464H313.168V470.48 c0-17.008,14.944-20.12,23.984-20.448h65.576 M403.144,426.024h-66.328c0,0-47.648,0.536-47.648,44.448c0,39.68,0,41.488,0,41.488 v-0.016h161.624c0-0.256,0-3.776,0-41.464C450.792,426.824,403.144,426.024,403.144,426.024L403.144,426.024z M450.792,511.944 v0.016C450.792,511.96,450.792,511.96,450.792,511.944L450.792,511.944z"></path> </g> <g> </g> <g> </g> <g> </g> <g> </g> <g> </g> <g> </g> <g> </g> <g> </g> <g> </g> <g> </g> <g> </g> <g> </g> <g> </g> <g> </g> <g> </g> </svg> 